<?xml version="1.0" standalone="no"?><!DOCTYPE svg PUBLIC "-//W3C//DTD SVG 1.1//EN" "http://www.w3.org/Graphics/SVG/1.1/DTD/svg11.dtd"><svg class="icon" width="20px" height="20.00px" viewBox="0 0 1024 1024" version="1.1" xmlns="http://www.w3.org/2000/svg"><path fill="#bbb" d="M523.636364 144.756364a17.221818 17.221818 0 1 0-34.443637 0v189.207272a30.72 30.72 0 0 1-34.443636 34.443637 31.418182 31.418182 0 0 1-34.443636-34.443637v-197.818181l-34.443637-8.61091-34.443636 8.61091v197.818181a30.72 30.72 0 0 1-34.443637 34.443637 31.418182 31.418182 0 0 1-34.443636-34.443637V144.756364a17.221818 17.221818 0 1 0-34.443636 0V162.909091s-34.443636 162.909091-34.443637 240.872727c0 27.694545 46.545455 83.549091 127.301819 99.141818l-23.272728 302.545455a69.818182 69.818182 0 1 0 135.912728 0l-23.272728-302.545455c80.523636-15.36 127.301818-69.818182 127.301818-99.141818C558.545455 325.818182 523.636364 162.909091 523.636364 162.909091v-17.221818zM833.163636 437.294545C831.534545 290.909091 768 183.854545 725.178182 144.290909a34.443636 34.443636 0 0 0-64 18.618182v653.032727h3.025454a51.665455 51.665455 0 1 0 97.28 0h3.025455v-172.218182s69.818182-6.050909 69.818182-69.818181v-136.61091z"  /></svg>