<?xml version="1.0" standalone="no"?><!DOCTYPE svg PUBLIC "-//W3C//DTD SVG 1.1//EN" "http://www.w3.org/Graphics/SVG/1.1/DTD/svg11.dtd"><svg class="icon" width="20px" height="20.00px" viewBox="0 0 1024 1024" version="1.1" xmlns="http://www.w3.org/2000/svg"><path fill="#bbb" d="M253.5 892.2c-104.9 0-190.2-85.3-190.2-190.2 0-76.6 45.5-145.3 116-175.2 22.8-9.7 49.1 1 58.8 23.8 9.7 22.8-1 49.1-23.8 58.8C177 625.2 153 661.5 153 702c0 55.4 45.1 100.5 100.5 100.5S354 757.4 354 702c0-24.8 20.1-44.9 44.9-44.9s44.9 20.1 44.9 44.9c-0.1 104.9-85.4 190.2-190.3 190.2zM768.1 892.2c-104.9 0-190.2-85.3-190.2-190.2 0-104.9 85.3-190.2 190.2-190.2S958.3 597.1 958.3 702c0 104.9-85.3 190.2-190.2 190.2z m0-290.7c-55.4 0-100.5 45.1-100.5 100.5s45.1 100.5 100.5 100.5S868.6 757.4 868.6 702s-45.1-100.5-100.5-100.5z"  /><path fill="#bbb" d="M768.1 746.9c-19.7 0-37.8-13.1-43.2-33L579.5 184.7c-3.7-13.5-0.9-28 7.6-39.1 8.5-11.1 21.7-17.7 35.7-17.7h184.8c24.8 0 44.9 20.1 44.9 44.9s-20.1 44.9-44.9 44.9h-126l129.8 472.4c6.6 23.9-7.5 48.6-31.4 55.1-4 1.2-8 1.7-11.9 1.7z"  /><path fill="#bbb" d="M484.4 746.9H253.5c-15.9 0-30.6-8.4-38.6-22.1-8.1-13.7-8.3-30.6-0.6-44.5l137.9-249.8-25.3-80.7h-73.3c-24.8 0-44.9-20.1-44.9-44.9s20.1-44.9 44.9-44.9h106.2c19.6 0 36.9 12.7 42.8 31.4l32.1 102.4H690c24.8 0 44.9 20.1 44.9 44.9s-20.1 44.9-44.9 44.9H462.9l64.3 204.9c4.3 13.6 1.8 28.5-6.6 40-8.5 11.6-21.9 18.4-36.2 18.4z m-154.9-89.7h93.7l-34-108.2-59.7 108.2z"  /></svg>